<svg fill="none" height="48" viewBox="0 0 48 48" width="48" xmlns="http://www.w3.org/2000/svg"><path d="m36.4836 2 9.4047 9.4286-13.3883 13.0184 9.3883 9.553c1.1804 1.1145 1.6926 2.246 1.6926 4 0 3.3752-2.7292 6.1114-6.0959 6.1114-1.6503 0-2.4992-.2483-3.5967-1.3162l-9.6435-9.668-12.8402 12.8728-9.4046-9.4286 12.8401-12.8728-10.45185-10.4785c-.13478-.127-.25832-.2506-.37143-.3724-.87977-.9476-1.12857-1.7916-1.12857-3.3477 0-3.37525 2.72923-6.11142 6.0959-6.11142 1.75175 0 3.29215.4253 4.40415 1.61142l9.9768 10.1519z" fill="#ed3501"/></svg>